# xmcd CD database file
#
# Track frame offsets:
#	183
#	51700
#	77400
#	93058
#	113235
#	132525
#	167003
#	191695
#	215455
#	233375
#	247028
#	273715
#	287820
#	302073
#
# Disc length: 4189 seconds
#
# Revision: 0
# Processed by: cddbd v1.4PL0 Copyright (c) Steve Scherf et al.
# Submitted via: CDex 1.40Release
#
DISCID=c9105b0e
DTITLE=Various Artist - The Burnley National Blues Festival
DYEAR=1900
DGENRE=Blues
TTITLE0=Fenton Robinson - Help Me
TTITLE1=Fenton Robinson - Stormy Monday
TTITLE2=The Big Town Playboys - Baby Please
TTITLE3=The Big Town Playboys - Red Hot Mama
TTITLE4=Champion Jack Dupree - She's Gone
TTITLE5=Champion Jack Dupree - I Keep On Drifting
TTITLE6=Otis Grand and The Dance Kings - Burnley City Limits
TTITLE7=Otis Grand and The Dance Kings - Later Than You Think
TTITLE8=Little Willie Littlefield - You Look So Fine
TTITLE9=Little Willie Littlefield - Cry Over You
TTITLE10=The Norman Beaker Band - Break It Down
TTITLE11=Hans Theessink - Charley Stone
TTITLE12=Kevin Brown - Hey Joe Louis
TTITLE13=The Blues Bunch - Party Girl
EXTD=ID3G: 0
EXTT0=
EXTT1=
EXTT2=
EXTT3=
EXTT4=
EXTT5=
EXTT6=
EXTT7=
EXTT8=
EXTT9=
EXTT10=
EXTT11=
EXTT12=
EXTT13=
PLAYORDER=
